<?xml version="1.0" encoding="utf-8"?>
<!-- Generator: Adobe Illustrator 27.0.0, SVG Export Plug-In . SVG Version: 6.00 Build 0)  -->
<svg version="1.1" id="Layer_1" xmlns="http://www.w3.org/2000/svg" xmlns:xlink="http://www.w3.org/1999/xlink" x="0px" y="0px"
	 viewBox="0 0 1080 254.3" style="enable-background:new 0 0 1080 254.3;" xml:space="preserve">
<style type="text/css">
	.st0{fill:#2C2C2C;}
	.st1{fill:#3F8CFF;}
</style>
<g>
	<path class="st0" d="M156,123.8c-3.6,6.7-9.2,12-16.9,16.1c-7.7,4.1-17.3,6.1-29,6.1H86.3v54.6H57.8V58.5h52.3
		c11,0,20.4,1.9,28.1,5.7c7.7,3.8,13.5,9,17.4,15.7c3.9,6.7,5.8,14.2,5.8,22.6C161.4,110.1,159.6,117.2,156,123.8z M126.4,117.6
		c3.8-3.6,5.7-8.7,5.7-15.2c0-13.8-7.7-20.8-23.2-20.8H86.3V123h22.6C116.7,123,122.6,121.2,126.4,117.6z"/>
	<path class="st0" d="M183.5,69.6c-3.3-3.2-5-7.2-5-11.9c0-4.8,1.7-8.7,5-11.9c3.3-3.2,7.5-4.8,12.5-4.8c5,0,9.2,1.6,12.5,4.8
		c3.3,3.2,5,7.2,5,11.9c0,4.8-1.7,8.7-5,11.9c-3.3,3.2-7.5,4.8-12.5,4.8C191,74.4,186.8,72.8,183.5,69.6z M210.1,87.8v112.8h-28.5
		V87.8H210.1z"/>
	<path class="st0" d="M281,91.3c5.9-3.4,12.7-5.1,20.3-5.1v29.9h-7.5c-9,0-15.7,2.1-20.3,6.3c-4.5,4.2-6.8,11.5-6.8,22v56.2h-28.5
		V87.8h28.5v17.5C270.3,99.3,275.1,94.6,281,91.3z"/>
	<path class="st0" d="M426.9,87.8v112.8h-28.7v-14.3c-3.7,4.9-8.5,8.7-14.4,11.5c-5.9,2.8-12.3,4.2-19.2,4.2
		c-8.8,0-16.6-1.9-23.4-5.6c-6.8-3.7-12.1-9.2-16-16.5c-3.9-7.3-5.8-15.9-5.8-26V87.8h28.5v62.1c0,9,2.2,15.9,6.7,20.7
		c4.5,4.8,10.6,7.2,18.3,7.2c7.9,0,14.1-2.4,18.5-7.2c4.5-4.8,6.7-11.7,6.7-20.7V87.8H426.9z"/>
	<path class="st0" d="M473.3,197.4c-7.3-3.3-13.1-7.8-17.4-13.5s-6.6-12-7-18.9h28.7c0.5,4.3,2.7,7.9,6.4,10.8
		c3.7,2.9,8.4,4.3,13.9,4.3c5.4,0,9.7-1.1,12.7-3.3c3.1-2.2,4.6-5,4.6-8.3c0-3.7-1.9-6.4-5.6-8.2c-3.7-1.8-9.7-3.8-17.8-6
		c-8.4-2-15.3-4.1-20.7-6.3c-5.4-2.2-10-5.5-13.8-10s-5.8-10.5-5.8-18.1c0-6.2,1.8-11.9,5.4-17.1c3.6-5.2,8.8-9.2,15.5-12.2
		c6.7-3,14.6-4.5,23.7-4.5c13.4,0,24.2,3.4,32.2,10.1c8,6.7,12.4,15.8,13.2,27.2h-27.3c-0.4-4.5-2.3-8-5.6-10.7
		c-3.3-2.6-7.8-4-13.3-4c-5.2,0-9.1,1-11.9,2.9c-2.8,1.9-4.2,4.5-4.2,7.9c0,3.8,1.9,6.7,5.7,8.7c3.8,2,9.7,4,17.7,6
		c8.1,2,14.9,4.1,20.2,6.3c5.3,2.2,9.9,5.5,13.7,10.1c3.9,4.5,5.9,10.6,6,18c0,6.5-1.8,12.4-5.4,17.5c-3.6,5.2-8.8,9.2-15.5,12.1
		c-6.7,2.9-14.6,4.4-23.5,4.4C489,202.4,480.7,200.8,473.3,197.4z"/>
	<path class="st1" d="M650.9,66.8c11.3,5.7,19.9,13.9,25.9,24.6c6,10.7,9,23.5,9,38.3c0,14.7-3,27.3-9,38
		c-6,10.7-14.6,18.8-25.9,24.4c-11.3,5.6-24.8,8.5-40.5,8.5h-42.2V58.3h42.2C626.1,58.3,639.6,61.1,650.9,66.8z M655.7,173.2
		c10.4-10.4,15.6-24.9,15.6-43.5c0-18.7-5.2-33.4-15.6-43.9c-10.4-10.5-25.5-15.8-45.3-15.8h-27.9v118.7h27.9
		C630.2,188.8,645.3,183.6,655.7,173.2z"/>
	<path class="st1" d="M712.3,114.8c4.5-8.6,10.9-15.3,18.9-20c8.1-4.7,17.2-7,27.4-7c10.6,0,19.7,2.4,27.4,7.3
		c7.7,4.9,13.2,11.1,16.6,18.7V89.4h14.3v111.2h-14.3V176c-3.5,7.6-9.1,13.9-16.8,18.8c-7.7,5-16.8,7.4-27.4,7.4
		c-10,0-19.1-2.4-27.2-7.1c-8.1-4.8-14.4-11.5-18.9-20.2c-4.5-8.7-6.8-18.7-6.8-30.1S707.8,123.4,712.3,114.8z M797.1,121.4
		c-3.7-6.8-8.7-12-15-15.7c-6.3-3.7-13.3-5.5-20.9-5.5c-7.9,0-14.9,1.8-21.2,5.3c-6.2,3.5-11.2,8.7-14.8,15.4
		c-3.6,6.7-5.4,14.7-5.4,23.9c0,9.1,1.8,17.1,5.4,23.9c3.6,6.9,8.5,12.1,14.8,15.7c6.2,3.6,13.3,5.4,21.2,5.4
		c7.6,0,14.6-1.8,20.9-5.5c6.3-3.7,11.3-8.9,15-15.7c3.7-6.8,5.5-14.7,5.5-23.6C802.6,136.1,800.8,128.2,797.1,121.4z"/>
	<path class="st1" d="M856.5,193.4c-8.1-5.9-12.6-13.9-13.5-24.1h14.7c0.7,6.2,3.6,11.3,8.9,15.2c5.2,3.9,12.2,5.8,21.1,5.8
		c7.7,0,13.8-1.8,18.2-5.5c4.4-3.7,6.6-8.2,6.6-13.6c0-3.8-1.2-6.9-3.7-9.4c-2.4-2.4-5.5-4.4-9.3-5.8c-3.7-1.4-8.8-3-15.2-4.6
		c-8.3-2.2-15-4.3-20.2-6.5c-5.2-2.2-9.5-5.4-13.1-9.7c-3.6-4.3-5.4-10-5.4-17.2c0-5.4,1.6-10.5,4.9-15.1c3.3-4.6,7.9-8.3,13.8-11
		c6-2.7,12.8-4.1,20.4-4.1c11.9,0,21.6,3,28.9,9.1c7.3,6,11.3,14.4,11.8,24.9h-14.3c-0.4-6.5-3-11.8-7.6-15.8c-4.7-4-11.1-6-19.2-6
		c-7.2,0-13,1.7-17.5,5.1c-4.5,3.4-6.7,7.6-6.7,12.6c0,4.3,1.3,7.9,4,10.7c2.6,2.8,5.9,5,9.9,6.5c3.9,1.6,9.2,3.3,15.9,5.2
		c8,2.2,14.4,4.3,19.1,6.3c4.8,2,8.8,5,12.2,9c3.4,3.9,5.2,9.2,5.3,15.7c0,6-1.6,11.3-4.9,16c-3.3,4.7-7.8,8.4-13.6,11.1
		c-5.8,2.7-12.6,4.1-20.2,4.1C875,202.2,864.5,199.3,856.5,193.4z"/>
	<path class="st1" d="M1028.9,92.7c6.7,3.5,12,8.9,15.9,16.2c3.9,7.3,5.8,16.1,5.8,26.6v65.2h-14.1v-63.5c0-12.1-3-21.3-9.1-27.7
		c-6-6.4-14.3-9.6-24.7-9.6c-10.7,0-19.3,3.4-25.7,10.2c-6.4,6.8-9.6,16.8-9.6,29.9v60.7h-14.3V49.9h14.3v58.4
		c3.5-6.6,8.7-11.8,15.6-15.5c6.9-3.7,14.6-5.5,23.1-5.5C1014.7,87.4,1022.2,89.2,1028.9,92.7z"/>
</g>
</svg>
